<svg xmlns="http://www.w3.org/2000/svg" xmlns:xlink="http://www.w3.org/1999/xlink" viewBox="0 0 100 100" width="100px" height="100px"><defs><rect id="MwsnlnSAPxwl8YcD8PbVTa" width="100" height="84.444" x="-253" y="-377.867"/></defs><clipPath id="MwsnlnSAPxwl8YcD8PbVTb"><use overflow="visible" xlink:href="#MwsnlnSAPxwl8YcD8PbVTa"/></clipPath><g clip-path="url(#MwsnlnSAPxwl8YcD8PbVTb)"><defs><rect id="MwsnlnSAPxwl8YcD8PbVTc" width="1046.667" height="1486.667" x="-577.444" y="-1120.089"/></defs></g><circle cx="50" cy="51.5" r="33" fill="#4b4dff"/><path fill="#4343bf" d="M50,89c-20.126,0-36.5-16.374-36.5-36.5S29.874,16,50,16s36.5,16.374,36.5,36.5S70.126,89,50,89z M50,22c-16.817,0-30.5,13.683-30.5,30.5S33.183,83,50,83s30.5-13.683,30.5-30.5S66.817,22,50,22z"/><path fill="#3abcf8" d="M50,93C27.65,93,9.468,74.832,9.468,52.5h10C19.468,69.317,33.164,83,50,83 c16.789,0,30.447-13.683,30.447-30.5h10C90.447,74.832,72.303,93,50,93z"/><path fill="#ff8405" d="M55.25,6.5L15,86l13.25-0.5l10.875-22.875H55v8.625h10.75V6.5H55.25z M55.25,52.25h-11.5l11.5-25 V52.25z"/><g><path fill="#edf7f5" d="M65.75,6.5v64.75H55v-8.625H39.125L28.25,85.5L15,86L55.25,6.5H65.75 M43.75,52.25h11.5v-25 L43.75,52.25 M69.75,2.5h-4h-10.5h-2.458l-1.11,2.193l-40.25,79.5l-3.068,6.06l6.788-0.256l13.25-0.5l2.421-0.091l1.04-2.188 l9.79-20.592H51v4.625v4h4h10.75h4v-4V6.5V2.5L69.75,2.5z"/></g><g><polygon fill="#edf7f5" points="55.557,73.38 52.443,70.87 64.269,56.201 52.644,45.47 55.356,42.53 69.731,55.799"/></g></svg>